<svg width="211.768" height="75.978" viewBox="0 0 211.768 75.978" xmlns="http://www.w3.org/2000/svg"><g id="svgGroup" stroke-linecap="round" fill-rule="evenodd" font-size="9pt" stroke="#065ad6" stroke-width="0.25mm" fill="#065ad6" style="stroke:#065ad6;stroke-width:0.25mm;fill:#065ad6"><path d="M 204.785 75 L 183.398 48.389 L 176.709 54.834 L 176.709 75 L 170.85 75 L 170.85 0 L 176.709 0 L 176.709 47.998 L 182.227 42.041 L 202.441 22.168 L 209.814 22.168 L 187.402 44.434 L 211.768 75 L 204.785 75 Z M 115.918 22.168 L 121.484 22.168 L 121.68 31.201 A 22.757 22.757 0 0 1 125.494 26.442 A 19.391 19.391 0 0 1 129.102 23.755 A 19.288 19.288 0 0 1 138.916 21.191 A 23.918 23.918 0 0 1 143.746 21.647 Q 146.606 22.237 148.772 23.592 A 12.325 12.325 0 0 1 151.563 25.977 A 15.145 15.145 0 0 1 154.372 30.972 Q 155.734 34.874 155.762 40.332 L 155.762 75 L 149.951 75 L 149.951 40.283 A 27.558 27.558 0 0 0 149.694 36.586 Q 149.072 32.228 146.948 29.736 Q 144.487 26.848 139.567 26.366 A 21.232 21.232 0 0 0 137.5 26.27 A 14.779 14.779 0 0 0 127.905 29.663 A 18.898 18.898 0 0 0 122.865 36.086 A 24.055 24.055 0 0 0 121.729 38.818 L 121.729 75 L 115.918 75 L 115.918 22.168 Z M 23.779 75 L 0 75 L 0 3.906 L 20.996 3.906 A 44.362 44.362 0 0 1 27.446 4.344 Q 34.222 5.342 38.33 8.618 A 15.2 15.2 0 0 1 43.771 17.7 A 23.426 23.426 0 0 1 44.238 22.51 A 17.041 17.041 0 0 1 43.391 27.966 A 14.977 14.977 0 0 1 41.235 32.104 A 16.072 16.072 0 0 1 34.279 37.464 A 19.989 19.989 0 0 1 33.008 37.939 A 17.075 17.075 0 0 1 42.993 44.043 A 17.022 17.022 0 0 1 46.777 54.98 Q 46.777 64.404 40.698 69.702 A 20.205 20.205 0 0 1 32.929 73.826 Q 29.894 74.707 26.265 74.927 A 41.064 41.064 0 0 1 23.779 75 Z M 56.689 48.975 L 56.689 47.803 A 33.827 33.827 0 0 1 57.624 39.712 A 28.471 28.471 0 0 1 59.644 34.082 A 23.293 23.293 0 0 1 64.715 27.104 A 21.873 21.873 0 0 1 67.993 24.585 Q 73.389 21.191 80.225 21.191 A 24.408 24.408 0 0 1 88.549 22.557 A 21.145 21.145 0 0 1 97.314 28.589 Q 103.857 35.986 103.857 48.193 L 103.857 49.414 A 34.193 34.193 0 0 1 102.923 57.552 A 28.638 28.638 0 0 1 100.903 63.208 A 23.23 23.23 0 0 1 96.405 69.634 A 21.126 21.126 0 0 1 92.578 72.656 A 22.358 22.358 0 0 1 82.124 75.918 A 27.369 27.369 0 0 1 80.322 75.977 A 24.209 24.209 0 0 1 71.889 74.561 A 21.275 21.275 0 0 1 63.257 68.579 A 25.278 25.278 0 0 1 57.538 57.127 A 37.075 37.075 0 0 1 56.689 48.975 Z M 62.549 48.34 L 62.549 49.414 A 30.014 30.014 0 0 0 63.298 56.297 A 21.392 21.392 0 0 0 67.456 64.966 Q 72.363 71.045 80.322 71.045 A 16.654 16.654 0 0 0 87.078 69.709 A 16.035 16.035 0 0 0 93.14 64.966 A 21.206 21.206 0 0 0 97.173 56.639 Q 98.047 53.128 98.047 48.926 L 98.047 47.803 A 28.379 28.379 0 0 0 97.125 40.466 A 24.904 24.904 0 0 0 95.801 36.719 Q 93.555 31.689 89.502 28.931 Q 85.449 26.172 80.225 26.172 A 16.098 16.098 0 0 0 72.959 27.789 Q 69.891 29.314 67.499 32.277 A 20.375 20.375 0 0 0 67.48 32.3 Q 62.69 38.253 62.553 47.777 A 39.202 39.202 0 0 0 62.549 48.34 Z M 24.512 40.82 L 6.006 40.82 L 6.006 69.922 L 24.023 69.922 A 24.51 24.51 0 0 0 29.053 69.436 Q 33.326 68.54 36.255 65.991 A 12.86 12.86 0 0 0 40.54 58.085 A 18.724 18.724 0 0 0 40.771 55.078 A 16.224 16.224 0 0 0 40.164 50.522 A 12.293 12.293 0 0 0 36.45 44.653 Q 32.557 41.2 25.989 40.858 A 28.398 28.398 0 0 0 24.512 40.82 Z M 6.006 9.033 L 6.006 35.791 L 22.412 35.791 A 27.499 27.499 0 0 0 26.981 35.345 Q 29.402 34.887 31.339 33.965 A 13.167 13.167 0 0 0 34.058 32.251 A 10.968 10.968 0 0 0 37.848 25.815 A 16.809 16.809 0 0 0 38.184 22.363 A 17.253 17.253 0 0 0 37.769 18.452 Q 37.153 15.808 35.623 13.93 A 10.02 10.02 0 0 0 33.911 12.28 A 13.61 13.61 0 0 0 29.953 10.254 Q 26.324 9.042 21.076 9.033 A 45.816 45.816 0 0 0 20.996 9.033 L 6.006 9.033 Z" vector-effect="non-scaling-stroke"/></g></svg>