<svg width="581.901" height="99.1" viewBox="0 0 581.901 99.1" xmlns="http://www.w3.org/2000/svg"><g id="svgGroup" stroke-linecap="round" fill-rule="evenodd" font-size="9pt" stroke="#065ad6" stroke-width="0.25mm" fill="#065ad6" style="stroke:#065ad6;stroke-width:0.25mm;fill:#065ad6"><path d="M 353 48.9 L 352.9 53.3 L 310 53.3 L 307.7 45.1 L 344 45.1 L 342.5 46.8 L 342.5 44.4 Q 342.2 41.1 340.3 38.5 Q 338.4 35.9 335.5 34.4 Q 332.6 32.9 329.2 32.9 A 23.599 23.599 0 0 0 325.098 33.238 Q 322.747 33.653 320.82 34.579 A 13.923 13.923 0 0 0 320.1 34.95 Q 316.4 37 314.5 40.95 A 17.931 17.931 0 0 0 313.136 45.06 Q 312.6 47.619 312.6 50.7 A 22.131 22.131 0 0 0 313.105 55.538 A 16.991 16.991 0 0 0 314.9 60.25 Q 317.2 64.3 321.4 66.5 A 19.123 19.123 0 0 0 327.631 68.463 A 24.617 24.617 0 0 0 331.1 68.7 A 20.583 20.583 0 0 0 336.415 68.031 A 18.494 18.494 0 0 0 338.35 67.4 Q 341.7 66.1 345.6 62.7 L 350.8 70 Q 348.4 72.4 344.95 74.2 Q 341.5 76 337.65 77.05 A 29.279 29.279 0 0 1 331.609 78.057 A 26.437 26.437 0 0 1 330.1 78.1 Q 322 78.1 315.75 74.65 Q 309.5 71.2 305.95 65.2 A 25.532 25.532 0 0 1 302.57 54.727 A 31.887 31.887 0 0 1 302.4 51.4 A 33.315 33.315 0 0 1 303.087 44.512 A 27.75 27.75 0 0 1 304.4 40.1 A 27.413 27.413 0 0 1 309.034 32.27 A 25.914 25.914 0 0 1 309.95 31.25 Q 313.5 27.5 318.45 25.45 A 27.309 27.309 0 0 1 327.586 23.441 A 31.85 31.85 0 0 1 329.2 23.4 A 23.47 23.47 0 0 1 337.308 24.789 A 22.299 22.299 0 0 1 338.7 25.35 Q 343.1 27.3 346.35 30.7 A 23.382 23.382 0 0 1 351.239 38.461 A 26.611 26.611 0 0 1 351.35 38.75 A 26.129 26.129 0 0 1 352.937 46.244 Q 353.025 47.546 353 48.9 Z M 69.8 77.1 L 69.8 24.6 L 80.1 24.6 L 80.1 35.4 L 78.3 36.6 A 14.264 14.264 0 0 1 80.719 31.853 A 17.953 17.953 0 0 1 82.2 30.15 A 23.093 23.093 0 0 1 88.589 25.593 A 26.295 26.295 0 0 1 89.1 25.35 Q 93.1 23.5 97.3 23.5 A 25.31 25.31 0 0 1 101.682 23.859 Q 104.167 24.296 106.198 25.266 A 14.539 14.539 0 0 1 107.3 25.85 A 13.845 13.845 0 0 1 112.442 31.219 A 17.897 17.897 0 0 1 113.3 33 Q 114.903 36.846 115.221 42.298 A 48.086 48.086 0 0 1 115.3 45.1 L 115.3 77.1 L 105 77.1 L 105 45.8 Q 105 42.379 104.306 39.854 A 13.425 13.425 0 0 0 103.8 38.35 A 9.314 9.314 0 0 0 102.446 36.005 A 7.639 7.639 0 0 0 100.1 34.05 A 9.455 9.455 0 0 0 97.383 33.104 Q 96.198 32.874 94.835 32.874 A 17.324 17.324 0 0 0 93.9 32.9 A 16.496 16.496 0 0 0 90.429 33.253 A 13.952 13.952 0 0 0 88.4 33.85 A 13.569 13.569 0 0 0 84.675 35.963 A 12.714 12.714 0 0 0 84.05 36.5 Q 82.2 38.2 81.15 40.45 Q 80.1 42.7 80.1 45.3 L 80.1 77.1 L 75 77.1 L 72.4 77.1 L 69.8 77.1 Z M 192.6 77.1 L 192.6 24.6 L 202.9 24.6 L 202.9 35.4 L 201.1 36.6 A 14.264 14.264 0 0 1 203.519 31.853 A 17.953 17.953 0 0 1 205 30.15 A 23.093 23.093 0 0 1 211.389 25.593 A 26.295 26.295 0 0 1 211.9 25.35 Q 215.9 23.5 220.1 23.5 A 25.31 25.31 0 0 1 224.482 23.859 Q 226.967 24.296 228.998 25.266 A 14.539 14.539 0 0 1 230.1 25.85 A 13.845 13.845 0 0 1 235.242 31.219 A 17.897 17.897 0 0 1 236.1 33 Q 237.703 36.846 238.021 42.298 A 48.086 48.086 0 0 1 238.1 45.1 L 238.1 77.1 L 227.8 77.1 L 227.8 45.8 Q 227.8 42.379 227.106 39.854 A 13.425 13.425 0 0 0 226.6 38.35 A 9.314 9.314 0 0 0 225.246 36.005 A 7.639 7.639 0 0 0 222.9 34.05 A 9.455 9.455 0 0 0 220.183 33.104 Q 218.998 32.874 217.635 32.874 A 17.324 17.324 0 0 0 216.7 32.9 A 16.496 16.496 0 0 0 213.229 33.253 A 13.952 13.952 0 0 0 211.2 33.85 A 13.569 13.569 0 0 0 207.475 35.963 A 12.714 12.714 0 0 0 206.85 36.5 Q 205 38.2 203.95 40.45 Q 202.9 42.7 202.9 45.3 L 202.9 77.1 L 197.8 77.1 L 195.2 77.1 L 192.6 77.1 Z M 477.3 99.1 L 466.9 99.1 L 466.9 24.6 L 477.3 24.6 L 477.3 36.6 L 475.7 35.7 A 9.497 9.497 0 0 1 477.014 32.494 Q 477.831 31.196 479.1 29.95 A 21.14 21.14 0 0 1 483.771 26.514 A 25.699 25.699 0 0 1 485.95 25.45 Q 490 23.7 494.3 23.7 A 24.502 24.502 0 0 1 501.975 24.87 A 21.761 21.761 0 0 1 506.9 27.2 A 24.661 24.661 0 0 1 515.398 36.422 A 29.008 29.008 0 0 1 515.6 36.8 A 27.878 27.878 0 0 1 518.518 46.268 A 35.413 35.413 0 0 1 518.8 50.8 A 33.08 33.08 0 0 1 517.858 58.838 A 27.58 27.58 0 0 1 515.65 64.75 A 25.105 25.105 0 0 1 509.372 72.708 A 24.213 24.213 0 0 1 507 74.45 A 22.328 22.328 0 0 1 494.815 77.999 A 26.693 26.693 0 0 1 494.6 78 Q 490 78 485.7 76.15 A 25.812 25.812 0 0 1 480.942 73.506 A 21.827 21.827 0 0 1 478.4 71.4 Q 475.929 69.012 475.018 66.487 A 9.124 9.124 0 0 1 474.7 65.4 L 477.3 64 L 477.3 99.1 Z M 540.4 99.1 L 530 99.1 L 530 24.6 L 540.4 24.6 L 540.4 36.6 L 538.8 35.7 A 9.497 9.497 0 0 1 540.114 32.494 Q 540.931 31.196 542.2 29.95 A 21.14 21.14 0 0 1 546.871 26.514 A 25.699 25.699 0 0 1 549.05 25.45 Q 553.1 23.7 557.4 23.7 A 24.502 24.502 0 0 1 565.075 24.87 A 21.761 21.761 0 0 1 570 27.2 A 24.661 24.661 0 0 1 578.498 36.422 A 29.008 29.008 0 0 1 578.7 36.8 A 27.878 27.878 0 0 1 581.618 46.268 A 35.413 35.413 0 0 1 581.9 50.8 A 33.08 33.08 0 0 1 580.958 58.838 A 27.58 27.58 0 0 1 578.75 64.75 A 25.105 25.105 0 0 1 572.472 72.708 A 24.213 24.213 0 0 1 570.1 74.45 A 22.328 22.328 0 0 1 557.915 77.999 A 26.693 26.693 0 0 1 557.7 78 Q 553.1 78 548.8 76.15 A 25.812 25.812 0 0 1 544.042 73.506 A 21.827 21.827 0 0 1 541.5 71.4 Q 539.029 69.012 538.118 66.487 A 9.124 9.124 0 0 1 537.8 65.4 L 540.4 64 L 540.4 99.1 Z M 295.9 34.1 L 290.2 41.1 A 17.858 17.858 0 0 0 287.435 38.001 A 21.48 21.48 0 0 0 286.1 36.9 Q 283.6 35 280.8 33.9 A 16.44 16.44 0 0 0 277.881 33.042 A 13.18 13.18 0 0 0 275.4 32.8 A 16.717 16.717 0 0 0 270.07 33.629 A 14.987 14.987 0 0 0 266.85 35.15 Q 263.1 37.5 260.9 41.6 A 18.663 18.663 0 0 0 258.759 49.154 A 22.573 22.573 0 0 0 258.7 50.8 Q 258.7 55.9 261 59.95 Q 263.3 64 267.1 66.4 Q 270.9 68.8 275.5 68.8 Q 278.2 68.8 280.75 67.9 A 17.814 17.814 0 0 0 284.491 66.044 A 21.118 21.118 0 0 0 285.7 65.2 A 24.27 24.27 0 0 0 288.995 62.199 A 28.767 28.767 0 0 0 290.2 60.8 L 295.9 67.8 A 21.259 21.259 0 0 1 290.902 72.745 A 28.626 28.626 0 0 1 286.75 75.2 Q 280.8 78.1 274.4 78.1 A 25.278 25.278 0 0 1 265.93 76.712 A 23.074 23.074 0 0 1 261.35 74.5 Q 255.6 70.9 252.25 64.7 A 28.09 28.09 0 0 1 248.982 53.17 A 33.874 33.874 0 0 1 248.9 50.8 A 30.448 30.448 0 0 1 250.176 41.867 A 27.004 27.004 0 0 1 252.25 36.9 Q 255.6 30.7 261.35 27.1 A 23.759 23.759 0 0 1 273.045 23.532 A 28.757 28.757 0 0 1 274.4 23.5 A 29.789 29.789 0 0 1 282.856 24.67 A 26.525 26.525 0 0 1 287.15 26.35 A 22.799 22.799 0 0 1 292.45 29.926 A 19.256 19.256 0 0 1 295.9 34.1 Z M 170.1 39 L 167.8 38.2 L 167.8 24.6 L 178.2 24.6 L 178.2 77.1 L 167.8 77.1 L 167.8 64.6 L 170.2 63.9 A 13.311 13.311 0 0 1 168.784 67.542 A 16.541 16.541 0 0 1 167.75 69.15 A 19.037 19.037 0 0 1 164.331 72.733 A 22.529 22.529 0 0 1 163.05 73.7 Q 160.2 75.7 156.75 76.9 Q 153.3 78.1 149.5 78.1 Q 143 78.1 137.65 74.5 Q 132.3 70.9 129.1 64.7 A 28.843 28.843 0 0 1 126.076 54.269 A 35.495 35.495 0 0 1 125.9 50.7 A 32.769 32.769 0 0 1 126.817 42.8 A 27.003 27.003 0 0 1 129.15 36.65 A 25.496 25.496 0 0 1 135.164 29.047 A 24.245 24.245 0 0 1 137.95 27 Q 143.5 23.5 150.4 23.5 A 24.356 24.356 0 0 1 154.964 23.912 A 20.127 20.127 0 0 1 157.9 24.7 A 19.457 19.457 0 0 1 162.479 27.005 A 17.612 17.612 0 0 1 163.85 28.05 Q 166.4 30.2 168.05 33 Q 169.7 35.8 170.1 39 Z M 444.4 39 L 442.1 38.2 L 442.1 24.6 L 452.5 24.6 L 452.5 77.1 L 442.1 77.1 L 442.1 64.6 L 444.5 63.9 A 13.311 13.311 0 0 1 443.084 67.542 A 16.541 16.541 0 0 1 442.05 69.15 A 19.037 19.037 0 0 1 438.631 72.733 A 22.529 22.529 0 0 1 437.35 73.7 Q 434.5 75.7 431.05 76.9 Q 427.6 78.1 423.8 78.1 Q 417.3 78.1 411.95 74.5 Q 406.6 70.9 403.4 64.7 A 28.843 28.843 0 0 1 400.376 54.269 A 35.495 35.495 0 0 1 400.2 50.7 A 32.769 32.769 0 0 1 401.117 42.8 A 27.003 27.003 0 0 1 403.45 36.65 A 25.496 25.496 0 0 1 409.464 29.047 A 24.245 24.245 0 0 1 412.25 27 Q 417.8 23.5 424.7 23.5 A 24.356 24.356 0 0 1 429.264 23.912 A 20.127 20.127 0 0 1 432.2 24.7 A 19.457 19.457 0 0 1 436.779 27.005 A 17.612 17.612 0 0 1 438.15 28.05 Q 440.7 30.2 442.35 33 Q 444 35.8 444.4 39 Z M 8.4 77.1 L 8.4 18.7 A 17.271 17.271 0 0 1 8.998 14.077 A 14.654 14.654 0 0 1 10.4 10.7 Q 12.4 7.2 15.9 5.2 Q 19.4 3.2 24 3.2 Q 27.2 3.2 30 4.4 Q 32.8 5.6 34.5 7.6 L 31 15.5 Q 29.7 14.3 28.15 13.55 A 8.204 8.204 0 0 0 26.822 13.038 A 5.923 5.923 0 0 0 25.2 12.8 A 11.287 11.287 0 0 0 23.63 12.903 Q 22.522 13.059 21.65 13.45 Q 20.2 14.1 19.5 15.45 Q 18.8 16.8 18.8 18.7 L 18.8 77.1 L 13.6 77.1 L 11 77.1 L 8.4 77.1 Z M 54 77.1 L 43.7 77.1 L 43.7 24.6 L 54 24.6 L 54 77.1 Z M 152.2 68.6 A 16.319 16.319 0 0 0 157.012 67.912 A 14.172 14.172 0 0 0 160.5 66.3 A 15.755 15.755 0 0 0 165.954 60.326 A 18.715 18.715 0 0 0 166.15 59.95 A 18.979 18.979 0 0 0 168.019 53.686 A 24.016 24.016 0 0 0 168.2 50.7 A 21.734 21.734 0 0 0 167.621 45.592 A 17.938 17.938 0 0 0 166.15 41.6 A 16.128 16.128 0 0 0 161.796 36.223 A 15.758 15.758 0 0 0 160.5 35.3 A 14.678 14.678 0 0 0 153.677 33.059 A 18.198 18.198 0 0 0 152.2 33 A 15.63 15.63 0 0 0 147.236 33.768 A 13.916 13.916 0 0 0 144.05 35.3 Q 140.5 37.6 138.45 41.6 Q 136.4 45.6 136.4 50.7 A 22.519 22.519 0 0 0 136.962 55.829 A 18.294 18.294 0 0 0 138.45 59.95 Q 140.5 64 144.05 66.3 A 14.372 14.372 0 0 0 151.066 68.564 A 17.654 17.654 0 0 0 152.2 68.6 Z M 426.5 68.6 A 16.319 16.319 0 0 0 431.312 67.912 A 14.172 14.172 0 0 0 434.8 66.3 A 15.755 15.755 0 0 0 440.254 60.326 A 18.715 18.715 0 0 0 440.45 59.95 A 18.979 18.979 0 0 0 442.319 53.686 A 24.016 24.016 0 0 0 442.5 50.7 A 21.734 21.734 0 0 0 441.921 45.592 A 17.938 17.938 0 0 0 440.45 41.6 A 16.128 16.128 0 0 0 436.096 36.223 A 15.758 15.758 0 0 0 434.8 35.3 A 14.678 14.678 0 0 0 427.977 33.059 A 18.198 18.198 0 0 0 426.5 33 A 15.63 15.63 0 0 0 421.536 33.768 A 13.916 13.916 0 0 0 418.35 35.3 Q 414.8 37.6 412.75 41.6 Q 410.7 45.6 410.7 50.7 A 22.519 22.519 0 0 0 411.262 55.829 A 18.294 18.294 0 0 0 412.75 59.95 Q 414.8 64 418.35 66.3 A 14.372 14.372 0 0 0 425.366 68.564 A 17.654 17.654 0 0 0 426.5 68.6 Z M 492.9 68.5 A 15.688 15.688 0 0 0 498.135 67.646 A 14.28 14.28 0 0 0 501.1 66.2 A 16.238 16.238 0 0 0 506.667 60.149 A 19.11 19.11 0 0 0 506.8 59.9 A 18.352 18.352 0 0 0 508.76 53.357 A 22.878 22.878 0 0 0 508.9 50.8 A 21.648 21.648 0 0 0 508.355 45.847 A 17.555 17.555 0 0 0 506.85 41.75 Q 504.8 37.8 501.2 35.5 A 14.678 14.678 0 0 0 494.377 33.259 A 18.198 18.198 0 0 0 492.9 33.2 A 16.658 16.658 0 0 0 488.092 33.872 A 14.321 14.321 0 0 0 484.6 35.45 A 15.798 15.798 0 0 0 479.168 41.207 A 18.732 18.732 0 0 0 478.9 41.7 A 18.352 18.352 0 0 0 476.94 48.244 A 22.878 22.878 0 0 0 476.8 50.8 A 21.24 21.24 0 0 0 477.393 55.909 A 17.669 17.669 0 0 0 478.9 59.9 A 16.64 16.64 0 0 0 482.894 64.944 A 15.921 15.921 0 0 0 484.6 66.2 A 14.678 14.678 0 0 0 491.423 68.441 A 18.198 18.198 0 0 0 492.9 68.5 Z M 556 68.5 A 15.688 15.688 0 0 0 561.235 67.646 A 14.28 14.28 0 0 0 564.2 66.2 A 16.238 16.238 0 0 0 569.767 60.149 A 19.11 19.11 0 0 0 569.9 59.9 A 18.352 18.352 0 0 0 571.86 53.357 A 22.878 22.878 0 0 0 572 50.8 A 21.648 21.648 0 0 0 571.455 45.847 A 17.555 17.555 0 0 0 569.95 41.75 Q 567.9 37.8 564.3 35.5 A 14.678 14.678 0 0 0 557.477 33.259 A 18.198 18.198 0 0 0 556 33.2 A 16.658 16.658 0 0 0 551.192 33.872 A 14.321 14.321 0 0 0 547.7 35.45 A 15.798 15.798 0 0 0 542.268 41.207 A 18.732 18.732 0 0 0 542 41.7 A 18.352 18.352 0 0 0 540.04 48.244 A 22.878 22.878 0 0 0 539.9 50.8 A 21.24 21.24 0 0 0 540.493 55.909 A 17.669 17.669 0 0 0 542 59.9 A 16.64 16.64 0 0 0 545.994 64.944 A 15.921 15.921 0 0 0 547.7 66.2 A 14.678 14.678 0 0 0 554.523 68.441 A 18.198 18.198 0 0 0 556 68.5 Z M 31.2 35 L 0 35 L 0 25.5 L 31.2 25.5 L 31.2 35 Z M 391.1 53.6 L 362.3 53.6 L 362.3 43.4 L 391.1 43.4 L 391.1 53.6 Z M 48.7 13 Q 45.4 13 43.6 11.3 Q 41.82 9.619 41.8 6.568 A 10.601 10.601 0 0 1 41.8 6.5 A 7.394 7.394 0 0 1 42.105 4.326 A 5.87 5.87 0 0 1 43.65 1.8 A 6.154 6.154 0 0 1 46.617 0.223 A 9.204 9.204 0 0 1 48.7 0 Q 52 0 53.8 1.7 Q 55.58 3.382 55.6 6.432 A 10.601 10.601 0 0 1 55.6 6.5 A 7.394 7.394 0 0 1 55.295 8.675 A 5.87 5.87 0 0 1 53.75 11.2 A 6.154 6.154 0 0 1 50.783 12.778 A 9.204 9.204 0 0 1 48.7 13 Z" vector-effect="non-scaling-stroke"/></g></svg>
